<?xml version="1.0" encoding="UTF-8"?>
<svg xmlns="http://www.w3.org/2000/svg" xmlns:xlink="http://www.w3.org/1999/xlink" width="100pt" height="100pt" viewBox="0 0 100 100" version="1.1">
<g id="surface1">
<path style=" stroke:none;fill-rule:nonzero;fill:rgb(95.294118%,94.901961%,94.901961%);fill-opacity:1;" d="M 100 50 C 100 77.613281 77.613281 100 50 100 C 22.386719 100 0 77.613281 0 50 C 0 22.386719 22.386719 0 50 0 C 77.613281 0 100 22.386719 100 50 Z M 100 50 "/>
<path style=" stroke:none;fill-rule:nonzero;fill:rgb(5.882353%,32.941176%,61.568627%);fill-opacity:1;" d="M 16.65625 74.921875 L 28.992188 74.921875 C 33.328125 74.921875 38.34375 70.859375 38.34375 65.570312 L 38.34375 23.8125 L 26.417969 23.8125 C 20.859375 23.8125 16.65625 27.335938 16.65625 33.433594 Z M 16.65625 74.921875 "/>
<path style=" stroke:none;fill-rule:nonzero;fill:rgb(70.588235%,12.156863%,21.176471%);fill-opacity:1;" d="M 41.054688 74.921875 L 53.390625 74.921875 C 57.730469 74.921875 62.746094 70.859375 62.746094 65.570312 L 62.746094 23.8125 L 50.816406 23.8125 C 45.257812 23.8125 41.054688 27.335938 41.054688 33.433594 Z M 41.054688 74.921875 "/>
<path style=" stroke:none;fill-rule:nonzero;fill:rgb(19.607843%,60%,27.843137%);fill-opacity:1;" d="M 65.792969 74.921875 L 78.128906 74.921875 C 82.464844 74.921875 87.484375 70.859375 87.484375 65.570312 L 87.484375 23.8125 L 75.554688 23.8125 C 69.996094 23.8125 65.792969 27.335938 65.792969 33.433594 Z M 65.792969 74.921875 "/>
<path style=" stroke:none;fill-rule:nonzero;fill:rgb(95.294118%,94.901961%,94.901961%);fill-opacity:1;" d="M 16.605469 50.847656 L 13.21875 50.847656 C 14.167969 54.644531 18.640625 57.628906 23.65625 57.628906 C 28.265625 57.628906 34.5 55.050781 34.5 50.171875 L 34.5 41.359375 L 26.773438 41.359375 L 26.773438 50.171875 C 26.773438 52.746094 24.742188 54.78125 21.894531 54.78125 C 19.320312 54.78125 17.015625 53.152344 16.605469 50.847656 Z M 16.605469 50.847656 "/>
<path style=" stroke:none;fill-rule:nonzero;fill:rgb(95.294118%,94.901961%,94.901961%);fill-opacity:1;" d="M 84.242188 52.609375 C 84.242188 54.644531 82.480469 56.269531 80.175781 56.269531 L 63.097656 56.269531 L 63.097656 41.359375 L 80.175781 41.359375 C 82.207031 41.359375 83.972656 43.121094 83.972656 45.15625 C 83.972656 47.1875 82.207031 48.949219 80.175781 48.949219 C 82.480469 48.949219 84.242188 50.578125 84.242188 52.609375 Z M 69.601562 48.136719 L 74.890625 48.136719 C 76.246094 48.136719 77.464844 46.917969 77.464844 45.5625 C 77.464844 44.207031 76.246094 42.984375 74.890625 42.984375 L 69.601562 42.984375 Z M 75.023438 54.644531 C 76.378906 54.644531 77.601562 53.421875 77.601562 52.066406 C 77.601562 50.710938 76.378906 49.492188 75.023438 49.492188 L 69.601562 49.492188 L 69.601562 54.640625 L 75.023438 54.640625 Z M 75.023438 54.644531 "/>
<path style=" stroke:none;fill-rule:nonzero;fill:rgb(95.294118%,94.901961%,94.901961%);fill-opacity:1;" d="M 59.007812 53.695312 L 59.007812 56.269531 L 45.996094 56.269531 C 41.929688 56.269531 38.539062 52.882812 38.539062 48.816406 C 38.539062 44.75 41.929688 41.359375 45.996094 41.359375 L 59.007812 41.359375 L 59.007812 44.070312 C 55.890625 43.394531 52.90625 42.988281 51.417969 42.988281 C 48.164062 42.988281 45.589844 45.5625 45.589844 48.816406 C 45.589844 52.070312 48.164062 54.644531 51.417969 54.644531 C 52.90625 54.644531 55.890625 54.371094 59.007812 53.695312 Z M 59.007812 53.695312 "/>
</g>
</svg>
