<?xml version="1.0" encoding="iso-8859-1"?>
<!-- Generator: Adobe Illustrator 19.0.0, SVG Export Plug-In . SVG Version: 6.00 Build 0)  -->
<svg version="1.1" id="Capa_1" xmlns="http://www.w3.org/2000/svg" xmlns:xlink="http://www.w3.org/1999/xlink" x="0px" y="0px"
	 viewBox="0 0 480.106 480.106" style="enable-background:new 0 0 480.106 480.106;" xml:space="preserve">
<path d="M388.708,15.657c-3.594-2.571-8.593-1.742-11.164,1.852s-1.742,8.593,1.852,11.164c33.962,24.263,61.045,56.925,78.6,94.792
	c1.31,2.83,4.145,4.641,7.264,4.64c1.161,0.003,2.309-0.251,3.36-0.744c4.009-1.854,5.756-6.606,3.904-10.616
	C453.794,76.37,424.916,41.541,388.708,15.657L388.708,15.657z"/>
<path d="M445.084,45.361c2.822,3.4,7.866,3.868,11.265,1.046c3.4-2.822,3.868-7.866,1.046-11.265
	c-0.083-0.1-0.168-0.197-0.255-0.293c-10.356-11.875-21.665-22.882-33.816-32.912c-3.348-2.883-8.4-2.505-11.282,0.843
	c-2.883,3.348-2.505,8.4,0.843,11.282c0.084,0.072,0.169,0.142,0.255,0.211C424.611,23.756,435.294,34.152,445.084,45.361z"/>
<path d="M476.42,59.521c-2.566-3.597-7.562-4.432-11.159-1.866c-3.548,2.532-4.417,7.438-1.953,11.034l2.112,3.08
	c2.472,3.663,7.445,4.628,11.108,2.156s4.628-7.445,2.156-11.108l0,0L476.42,59.521z"/>
<path style="fill:#FFD33F;" d="M168.052,424.105h144l24,48h-192L168.052,424.105z"/>
<circle style="fill:#EC4B97;" cx="240.052" cy="224.105" r="216"/>
<path style="fill:#9E1566;" d="M357.372,42.785c64.818,100.116,36.204,233.822-63.911,298.64
	c-71.413,46.235-163.316,46.235-234.729,0c64.729,100.205,198.435,128.964,298.64,64.235s128.964-198.435,64.235-298.64
	C404.991,81.297,383.095,59.402,357.372,42.785z"/>
<circle style="fill:#FFD33F;" cx="240.052" cy="224.105" r="184"/>
<path style="fill:#F2624C;" d="M310.452,54.089c-45.098-18.645-95.75-18.645-140.848,0l70.448,170.016L310.452,54.089z"/>
<path style="fill:#FAA41B;" d="M169.652,54.089c-45.067,18.733-80.883,54.549-99.616,99.616l170.016,70.4L169.652,54.089z"/>
<path style="fill:#FFD33F;" d="M70.036,153.705c-18.645,45.095-18.645,95.745,0,140.84l170.016-70.44L70.036,153.705z"/>
<path style="fill:#EE2849;" d="M8.052,168.105v112l88-56L8.052,168.105z"/>
<path style="fill:#FFD33F;" d="M410.068,153.705l-170.016,70.4l170.016,70.4c18.645-45.098,18.645-95.75,0-140.848V153.705z"/>
<path style="fill:#EAB42D;" d="M410.068,153.705l-18.016,7.448c-0.136,39.783-11.314,78.747-32.288,112.552l50.304,20.8
	c18.645-45.098,18.645-95.75,0-140.848V153.705z"/>
<path style="fill:#FAA41B;" d="M410.068,153.705c-18.733-45.067-54.549-80.883-99.616-99.616l-70.4,170.016L410.068,153.705z"/>
<path style="fill:#F08015;" d="M410.068,153.705c-5.976-14.214-13.72-27.619-23.048-39.896c3.336,15.206,5.023,30.728,5.032,46.296
	v1.048L410.068,153.705z"/>
<path style="fill:#FAA41B;" d="M169.652,394.121c45.098,18.645,95.75,18.645,140.848,0l-70.448-170.016L169.652,394.121z"/>
<path style="fill:#F08015;" d="M177.1,376.105l-7.448,18.016c45.098,18.645,95.75,18.645,140.848,0l-20.8-50.304
	C255.881,364.8,216.899,375.978,177.1,376.105L177.1,376.105z"/>
<path style="fill:#F2624C;" d="M310.452,394.121c45.067-18.733,80.883-54.549,99.616-99.616l-170.016-70.4L310.452,394.121z"/>
<path style="fill:#D44A43;" d="M359.764,273.705c-17.644,28.471-41.641,52.468-70.112,70.112l20.8,50.304
	c45.067-18.733,80.883-54.549,99.616-99.616L359.764,273.705z"/>
<path style="fill:#F2624C;" d="M70.036,294.505c18.733,45.067,54.549,80.883,99.616,99.616l70.4-170.016L70.036,294.505z"/>
<path style="fill:#D44A43;" d="M176.052,376.105c-15.576-0.007-31.106-1.694-46.32-5.032c12.285,9.33,25.697,17.074,39.92,23.048
	l7.448-18.016C176.748,376.105,176.404,376.105,176.052,376.105L176.052,376.105z"/>
<path d="M240.052,0.105C137.954,0.384,48.889,69.486,23.252,168.313l-10.936-6.96c-3.738-2.355-8.678-1.233-11.033,2.505
	c-0.801,1.272-1.228,2.744-1.231,4.247v112c-0.002,4.418,3.578,8.001,7.997,8.003c1.523,0.001,3.015-0.433,4.299-1.251l10.928-6.96
	C41.03,348.38,90.052,404.474,155.54,431.241l-18.648,37.288c-1.975,3.952-0.372,8.757,3.58,10.732
	c1.112,0.555,2.337,0.844,3.58,0.844h192c4.418,0.024,8.02-3.538,8.044-7.956c0.007-1.256-0.282-2.496-0.844-3.62l-18.536-37.072
	c114.517-46.802,169.412-177.576,122.61-292.094C412.916,55.167,331.009,0.137,240.052,0.105L240.052,0.105z M16.052,182.673
	l65.096,41.432l-65.096,41.432V182.673z M225.268,238.889l-59.824,144.416c-37.154-17.526-67.059-47.425-84.592-84.576
	L225.268,238.889z M240.052,245.009l59.888,144.592c-38.678,14.055-81.076,14.004-119.72-0.144L240.052,245.009z M314.708,383.409
	l-59.872-144.52l144.552,59.872c-17.539,37.202-47.478,67.141-84.68,84.68V383.409z M405.548,283.993l-144.592-59.888
	l144.592-59.888C419.551,202.915,419.551,245.296,405.548,283.993L405.548,283.993z M254.836,209.321l59.872-144.552
	c37.202,17.539,67.141,47.478,84.68,84.68L254.836,209.321z M240.052,203.201L180.22,58.753
	c38.644-14.148,81.042-14.199,119.72-0.144L240.052,203.201z M165.444,64.905l59.824,144.424L80.852,149.481
	C98.379,112.326,128.286,82.426,165.444,64.905z M74.668,164.257l144.48,59.848l-144.48,59.848
	c-3.718-10.235-6.469-20.796-8.216-31.544l33.872-21.552c3.729-2.37,4.831-7.314,2.461-11.043c-0.63-0.991-1.47-1.831-2.461-2.461
	l-33.872-21.552C68.199,185.053,70.95,174.492,74.668,164.257L74.668,164.257z M323.108,464.105H156.996l13.64-27.28
	c45.086,14.977,93.795,15.041,138.92,0.184L323.108,464.105z M240.052,432.105c-96.763-0.224-180.65-67.006-202.56-161.256
	l14.4-9.168C72.644,365.67,173.767,433.145,277.755,412.393s171.464-121.875,150.711-225.863S306.591,15.066,202.603,35.818
	c-76.069,15.181-135.53,74.642-150.711,150.711l-14.4-9.176C63.339,65.451,175.007-4.311,286.909,21.536
	s181.664,137.515,155.817,249.417C420.932,365.309,336.892,432.132,240.052,432.105z"/>
<g>
</g>
<g>
</g>
<g>
</g>
<g>
</g>
<g>
</g>
<g>
</g>
<g>
</g>
<g>
</g>
<g>
</g>
<g>
</g>
<g>
</g>
<g>
</g>
<g>
</g>
<g>
</g>
<g>
</g>
</svg>
