<?xml version="1.0" encoding="UTF-8"?>
<svg xmlns="http://www.w3.org/2000/svg" xmlns:xlink="http://www.w3.org/1999/xlink" width="100pt" height="100pt" viewBox="0 0 100 100" version="1.1">
<g id="surface1">
<path style=" stroke:none;fill-rule:nonzero;fill:rgb(23.529412%,50.196078%,67.843137%);fill-opacity:1;" d="M 100 50 C 100 77.613281 77.613281 100 50 100 C 22.386719 100 0 77.613281 0 50 C 0 22.386719 22.386719 0 50 0 C 77.613281 0 100 22.386719 100 50 Z M 100 50 "/>
<path style=" stroke:none;fill-rule:nonzero;fill:rgb(57.647059%,10.588235%,11.372549%);fill-opacity:1;" d="M 33.652344 25.730469 C 21.035156 25.8125 10.820312 36.097656 10.820312 48.761719 C 10.820312 61.472656 21.117188 71.789062 33.800781 71.789062 C 39.753906 71.789062 45.179688 69.515625 49.261719 65.789062 L 49.265625 65.789062 C 50.101562 65.023438 50.882812 64.199219 51.597656 63.320312 L 46.890625 63.320312 C 46.261719 62.5625 45.691406 61.765625 45.175781 60.949219 L 53.296875 60.949219 C 53.792969 60.15625 54.238281 59.335938 54.636719 58.484375 L 43.839844 58.484375 C 43.46875 57.691406 43.152344 56.886719 42.878906 56.066406 L 55.597656 56.066406 C 56.363281 53.769531 56.78125 51.3125 56.78125 48.761719 C 56.78125 47.066406 56.59375 45.417969 56.25 43.828125 L 42.203125 43.828125 C 42.378906 43.007812 42.597656 42.203125 42.859375 41.410156 L 55.582031 41.410156 C 55.296875 40.566406 54.96875 39.742188 54.59375 38.945312 L 43.835938 38.945312 C 44.226562 38.113281 44.664062 37.308594 45.15625 36.523438 L 53.269531 36.523438 C 52.726562 35.660156 52.132812 34.839844 51.484375 34.0625 L 46.960938 34.0625 C 47.664062 33.234375 48.429688 32.457031 49.265625 31.734375 C 45.183594 28.007812 39.757812 25.734375 33.804688 25.734375 C 33.75 25.730469 33.703125 25.730469 33.652344 25.730469 Z M 33.652344 25.730469 "/>
<path style=" stroke:none;fill-rule:nonzero;fill:rgb(94.509804%,40%,13.333333%);fill-opacity:1;" d="M 87.605469 48.769531 C 87.605469 61.484375 77.324219 71.796875 64.628906 71.800781 C 51.941406 71.804688 41.648438 61.496094 41.644531 48.777344 L 41.644531 48.769531 C 41.640625 36.046875 51.929688 25.734375 64.621094 25.730469 C 77.308594 25.726562 87.601562 36.035156 87.605469 48.753906 C 87.605469 48.753906 87.605469 48.761719 87.605469 48.769531 Z M 87.605469 48.769531 "/>
<path style=" stroke:none;fill-rule:nonzero;fill:rgb(96.862745%,59.607843%,11.372549%);fill-opacity:1;" d="M 87.605469 49.023438 C 87.605469 61.738281 77.324219 72.054688 64.628906 72.054688 C 51.941406 72.058594 41.648438 61.75 41.644531 49.035156 L 41.644531 49.023438 C 41.640625 36.304688 51.929688 25.992188 64.621094 25.988281 C 77.308594 25.984375 87.601562 36.292969 87.605469 49.011719 C 87.605469 49.011719 87.605469 49.019531 87.605469 49.023438 Z M 87.605469 49.023438 "/>
<path style=" stroke:none;fill-rule:nonzero;fill:rgb(79.607843%,12.54902%,14.901961%);fill-opacity:1;" d="M 33.652344 25.992188 C 21.035156 26.074219 10.820312 36.359375 10.820312 49.023438 C 10.820312 61.734375 21.117188 72.050781 33.800781 72.050781 C 39.753906 72.050781 45.179688 69.777344 49.261719 66.050781 L 49.261719 66.046875 L 49.265625 66.046875 C 50.101562 65.285156 50.882812 64.460938 51.597656 63.582031 L 46.890625 63.582031 C 46.261719 62.824219 45.691406 62.03125 45.175781 61.210938 L 53.296875 61.210938 C 53.792969 60.417969 54.238281 59.59375 54.636719 58.746094 L 43.839844 58.746094 C 43.46875 57.953125 43.152344 57.148438 42.878906 56.328125 L 55.597656 56.328125 C 56.363281 54.03125 56.78125 51.574219 56.78125 49.023438 C 56.78125 47.328125 56.59375 45.679688 56.25 44.089844 L 42.203125 44.089844 C 42.378906 43.273438 42.597656 42.464844 42.859375 41.671875 L 55.582031 41.671875 C 55.296875 40.828125 54.96875 40.003906 54.59375 39.203125 L 43.835938 39.203125 C 44.226562 38.375 44.664062 37.566406 45.15625 36.785156 L 53.269531 36.785156 C 52.726562 35.925781 52.132812 35.101562 51.484375 34.320312 L 46.960938 34.320312 C 47.664062 33.496094 48.429688 32.71875 49.265625 31.996094 C 45.183594 28.269531 39.757812 25.992188 33.804688 25.992188 C 33.75 25.992188 33.703125 25.992188 33.652344 25.992188 Z M 33.652344 25.992188 "/>
<path style=" stroke:none;fill-rule:nonzero;fill:rgb(100%,100%,100%);fill-opacity:1;" d="M 42.0625 54.886719 L 42.371094 52.800781 C 42.203125 52.800781 41.957031 52.871094 41.738281 52.871094 C 40.890625 52.871094 40.792969 52.417969 40.847656 52.085938 L 41.539062 47.832031 L 42.832031 47.832031 L 43.144531 45.523438 L 41.925781 45.523438 L 42.171875 44.09375 L 39.726562 44.09375 C 39.671875 44.144531 38.28125 52.15625 38.28125 53.128906 C 38.28125 54.574219 39.089844 55.214844 40.230469 55.207031 C 41.121094 55.199219 41.820312 54.953125 42.0625 54.886719 Z M 42.0625 54.886719 "/>
<path style=" stroke:none;fill-rule:nonzero;fill:rgb(100%,100%,100%);fill-opacity:1;" d="M 42.839844 50.910156 C 42.839844 54.375 45.121094 55.199219 47.066406 55.199219 C 48.859375 55.199219 49.648438 54.796875 49.648438 54.796875 L 50.082031 52.433594 C 50.082031 52.433594 48.714844 53.039062 47.484375 53.039062 C 44.855469 53.039062 45.316406 51.074219 45.316406 51.074219 L 50.289062 51.074219 C 50.289062 51.074219 50.609375 49.484375 50.609375 48.835938 C 50.609375 47.222656 49.804688 45.253906 47.121094 45.253906 C 44.660156 45.253906 42.839844 47.910156 42.839844 50.910156 Z M 47.132812 47.449219 C 48.511719 47.449219 48.257812 49.003906 48.257812 49.128906 L 45.539062 49.128906 C 45.539062 48.96875 45.796875 47.449219 47.132812 47.449219 Z M 47.132812 47.449219 "/>
<path style=" stroke:none;fill-rule:nonzero;fill:rgb(100%,100%,100%);fill-opacity:1;" d="M 62.621094 54.886719 L 63.0625 52.210938 C 63.0625 52.210938 61.859375 52.816406 61.035156 52.816406 C 59.300781 52.816406 58.605469 51.484375 58.605469 50.0625 C 58.605469 47.164062 60.097656 45.570312 61.761719 45.570312 C 63.007812 45.570312 64.007812 46.273438 64.007812 46.273438 L 64.40625 43.679688 C 64.40625 43.679688 62.925781 43.074219 61.652344 43.074219 C 58.828125 43.074219 56.078125 45.527344 56.078125 50.144531 C 56.078125 53.199219 57.5625 55.21875 60.484375 55.21875 C 61.308594 55.222656 62.621094 54.886719 62.621094 54.886719 Z M 62.621094 54.886719 "/>
<path style=" stroke:none;fill-rule:nonzero;fill:rgb(100%,100%,100%);fill-opacity:1;" d="M 28.609375 45.292969 C 26.929688 45.292969 25.644531 45.832031 25.644531 45.832031 L 25.289062 47.945312 C 25.289062 47.945312 26.351562 47.511719 27.957031 47.511719 C 28.867188 47.511719 29.53125 47.613281 29.53125 48.355469 C 29.53125 48.808594 29.449219 48.972656 29.449219 48.972656 C 29.449219 48.972656 28.734375 48.914062 28.398438 48.914062 C 26.285156 48.914062 24.0625 49.816406 24.0625 52.546875 C 24.0625 54.695312 25.519531 55.191406 26.421875 55.191406 C 28.148438 55.191406 28.890625 54.070312 28.933594 54.0625 L 28.851562 55.003906 L 31.007812 55.003906 L 31.96875 48.246094 C 31.96875 45.382812 29.472656 45.292969 28.609375 45.292969 Z M 29.132812 50.789062 C 29.179688 51.199219 28.875 53.136719 27.402344 53.136719 C 26.640625 53.136719 26.441406 52.550781 26.441406 52.207031 C 26.441406 51.539062 26.808594 50.730469 28.601562 50.730469 C 29.015625 50.730469 29.0625 50.777344 29.132812 50.789062 Z M 29.132812 50.789062 "/>
<path style=" stroke:none;fill-rule:nonzero;fill:rgb(100%,100%,100%);fill-opacity:1;" d="M 34.257812 55.140625 C 34.808594 55.140625 37.957031 55.28125 37.957031 52.023438 C 37.957031 48.976562 35.042969 49.578125 35.042969 48.355469 C 35.042969 47.746094 35.519531 47.554688 36.386719 47.554688 C 36.730469 47.554688 38.058594 47.664062 38.058594 47.664062 L 38.367188 45.5 C 38.367188 45.5 37.507812 45.308594 36.113281 45.308594 C 34.300781 45.308594 32.464844 46.027344 32.464844 48.507812 C 32.464844 51.316406 35.527344 51.03125 35.527344 52.214844 C 35.527344 53.003906 34.671875 53.070312 34.011719 53.070312 C 32.871094 53.070312 31.84375 52.675781 31.839844 52.695312 L 31.511719 54.835938 C 31.570312 54.855469 32.203125 55.140625 34.257812 55.140625 Z M 34.257812 55.140625 "/>
<path style=" stroke:none;fill-rule:nonzero;fill:rgb(100%,100%,100%);fill-opacity:1;" d="M 82.886719 43.347656 L 82.363281 46.628906 C 82.363281 46.628906 81.441406 45.355469 80 45.355469 C 77.757812 45.355469 75.886719 48.0625 75.886719 51.175781 C 75.886719 53.1875 76.882812 55.152344 78.921875 55.152344 C 80.386719 55.152344 81.199219 54.128906 81.199219 54.128906 L 81.09375 55.003906 L 83.472656 55.003906 L 85.34375 43.34375 Z M 81.753906 49.75 C 81.753906 51.042969 81.113281 52.769531 79.785156 52.769531 C 78.90625 52.769531 78.492188 52.03125 78.492188 50.867188 C 78.492188 48.96875 79.34375 47.710938 80.417969 47.710938 C 81.300781 47.710938 81.753906 48.320312 81.753906 49.75 Z M 81.753906 49.75 "/>
<path style=" stroke:none;fill-rule:nonzero;fill:rgb(100%,100%,100%);fill-opacity:1;" d="M 15.359375 55.011719 L 16.851562 46.210938 L 17.066406 55.011719 L 18.753906 55.011719 L 21.898438 46.210938 L 20.503906 55.011719 L 23.007812 55.011719 L 24.9375 43.339844 L 21.066406 43.339844 L 18.652344 50.5 L 18.527344 43.339844 L 14.957031 43.339844 L 13 55.011719 Z M 15.359375 55.011719 "/>
<path style=" stroke:none;fill-rule:nonzero;fill:rgb(100%,100%,100%);fill-opacity:1;" d="M 53.054688 55.03125 C 53.769531 50.972656 53.898438 47.675781 55.601562 48.277344 C 55.898438 46.707031 56.183594 46.101562 56.507812 45.433594 C 56.507812 45.433594 56.355469 45.402344 56.035156 45.402344 C 54.941406 45.402344 54.128906 46.902344 54.128906 46.902344 L 54.347656 45.527344 L 52.066406 45.527344 L 50.542969 55.03125 Z M 53.054688 55.03125 "/>
<path style=" stroke:none;fill-rule:nonzero;fill:rgb(100%,100%,100%);fill-opacity:1;" d="M 68.265625 45.292969 C 66.589844 45.292969 65.304688 45.832031 65.304688 45.832031 L 64.949219 47.945312 C 64.949219 47.945312 66.011719 47.511719 67.617188 47.511719 C 68.527344 47.511719 69.191406 47.613281 69.191406 48.355469 C 69.191406 48.808594 69.109375 48.972656 69.109375 48.972656 C 69.109375 48.972656 68.394531 48.914062 68.058594 48.914062 C 65.941406 48.914062 63.722656 49.816406 63.722656 52.546875 C 63.722656 54.695312 65.179688 55.191406 66.082031 55.191406 C 67.808594 55.191406 68.550781 54.070312 68.59375 54.0625 L 68.511719 55.003906 L 70.667969 55.003906 L 71.628906 48.246094 C 71.628906 45.382812 69.136719 45.292969 68.265625 45.292969 Z M 68.792969 50.789062 C 68.839844 51.199219 68.535156 53.136719 67.058594 53.136719 C 66.300781 53.136719 66.105469 52.550781 66.105469 52.207031 C 66.105469 51.539062 66.46875 50.730469 68.257812 50.730469 C 68.679688 50.730469 68.722656 50.777344 68.792969 50.789062 Z M 68.792969 50.789062 "/>
<path style=" stroke:none;fill-rule:nonzero;fill:rgb(100%,100%,100%);fill-opacity:1;" d="M 73.59375 55.03125 C 74.308594 50.972656 74.441406 47.675781 76.140625 48.277344 C 76.4375 46.707031 76.726562 46.101562 77.050781 45.433594 C 77.050781 45.433594 76.894531 45.402344 76.578125 45.402344 C 75.480469 45.402344 74.671875 46.902344 74.671875 46.902344 L 74.890625 45.527344 L 72.609375 45.527344 L 71.082031 55.027344 L 73.597656 55.027344 Z M 73.59375 55.03125 "/>
</g>
</svg>
