<?xml version="1.0" encoding="UTF-8"?>
<svg xmlns="http://www.w3.org/2000/svg" xmlns:xlink="http://www.w3.org/1999/xlink" width="100pt" height="100pt" viewBox="0 0 100 100" version="1.1">
<g id="surface1">
<path style=" stroke:none;fill-rule:nonzero;fill:rgb(95.294118%,94.901961%,94.901961%);fill-opacity:1;" d="M 100 50 C 100 77.613281 77.613281 100 50 100 C 22.386719 100 0 77.613281 0 50 C 0 22.386719 22.386719 0 50 0 C 77.613281 0 100 22.386719 100 50 Z M 100 50 "/>
<path style=" stroke:none;fill-rule:nonzero;fill:rgb(10.196078%,50.196078%,67.843137%);fill-opacity:1;" d="M 73.292969 41.597656 C 71.210938 41.597656 69.566406 42.148438 68.308594 42.398438 L 67.921875 45.5625 C 68.550781 45.261719 70.535156 44.710938 72.179688 44.65625 C 73.828125 44.609375 74.792969 44.960938 74.453125 46.367188 C 69.566406 46.367188 66.277344 47.367188 65.597656 50.53125 C 64.628906 55.953125 70.582031 55.800781 72.953125 53.441406 L 72.664062 54.746094 L 77.019531 54.746094 L 78.90625 46.113281 C 79.679688 42.449219 76.339844 41.546875 73.292969 41.597656 Z M 73.582031 50.429688 C 73.339844 51.585938 72.421875 52.085938 71.308594 52.136719 C 70.339844 52.1875 69.46875 51.332031 70.101562 50.328125 C 70.585938 49.476562 71.941406 49.277344 72.761719 49.277344 C 73.101562 49.277344 73.488281 49.277344 73.828125 49.277344 C 73.726562 49.679688 73.679688 50.027344 73.582031 50.429688 Z M 73.582031 50.429688 "/>
<path style=" stroke:none;fill-rule:nonzero;fill:rgb(10.196078%,50.196078%,67.843137%);fill-opacity:1;" d="M 82.632812 38.183594 L 79.027344 54.746094 L 83.453125 54.746094 L 87.101562 38.183594 Z M 82.632812 38.183594 "/>
<path style=" stroke:none;fill-rule:nonzero;fill:rgb(10.196078%,50.196078%,67.843137%);fill-opacity:1;" d="M 62.304688 38.234375 L 54.207031 38.234375 L 50.617188 54.746094 L 55.320312 54.746094 L 56.535156 49.277344 L 59.882812 49.277344 C 63.179688 49.277344 65.894531 47.269531 66.621094 43.855469 C 67.449219 39.988281 64.632812 38.234375 62.304688 38.234375 Z M 62.164062 43.855469 C 61.871094 45.109375 60.609375 46.113281 59.398438 46.113281 L 57.214844 46.113281 L 58.183594 41.59375 L 60.511719 41.59375 C 61.726562 41.597656 62.453125 42.601562 62.164062 43.855469 Z M 62.164062 43.855469 "/>
<path style=" stroke:none;fill-rule:nonzero;fill:rgb(10.196078%,35.686275%,50.196078%);fill-opacity:1;" d="M 30.878906 41.597656 C 28.820312 41.597656 27.195312 42.148438 26 42.398438 L 25.617188 45.5625 C 26.191406 45.257812 28.152344 44.710938 29.777344 44.65625 C 31.402344 44.609375 32.359375 44.957031 32.070312 46.363281 C 27.246094 46.363281 23.996094 47.367188 23.324219 50.53125 C 22.367188 55.953125 28.246094 55.800781 30.542969 53.441406 L 30.257812 54.746094 L 34.605469 54.746094 L 36.46875 46.113281 C 37.234375 42.449219 33.886719 41.546875 30.878906 41.597656 Z M 31.210938 50.429688 C 30.972656 51.585938 30.015625 52.085938 28.917969 52.136719 C 27.960938 52.1875 27.148438 51.332031 27.769531 50.328125 C 28.246094 49.476562 29.585938 49.277344 30.351562 49.277344 C 30.734375 49.277344 31.070312 49.277344 31.453125 49.277344 C 31.355469 49.679688 31.257812 50.027344 31.210938 50.429688 Z M 31.210938 50.429688 "/>
<path style=" stroke:none;fill-rule:nonzero;fill:rgb(10.196078%,35.686275%,50.196078%);fill-opacity:1;" d="M 38.363281 41.835938 L 42.714844 41.835938 L 43.417969 49.527344 L 47.671875 41.835938 L 52.160156 41.835938 L 41.828125 60.242188 L 36.964844 60.242188 L 40.140625 54.832031 Z M 38.363281 41.835938 "/>
<path style=" stroke:none;fill-rule:nonzero;fill:rgb(10.196078%,35.686275%,50.196078%);fill-opacity:1;" d="M 20.058594 38.234375 L 11.9375 38.234375 L 8.339844 54.746094 L 13.105469 54.746094 L 14.269531 49.277344 L 17.675781 49.277344 C 20.933594 49.277344 23.65625 47.269531 24.386719 43.855469 C 25.210938 39.988281 22.441406 38.234375 20.058594 38.234375 Z M 19.910156 43.855469 C 19.621094 45.109375 18.40625 46.113281 17.1875 46.113281 L 14.953125 46.113281 L 15.972656 41.59375 L 18.308594 41.59375 C 19.476562 41.597656 20.253906 42.601562 19.910156 43.855469 Z M 19.910156 43.855469 "/>
<path style=" stroke:none;fill-rule:nonzero;fill:rgb(10.196078%,35.686275%,50.196078%);fill-opacity:1;" d="M 88.054688 40.324219 L 88.054688 38.371094 L 87.328125 38.371094 L 87.328125 38.109375 L 89.082031 38.109375 L 89.082031 38.371094 L 88.351562 38.371094 L 88.351562 40.324219 Z M 88.054688 40.324219 "/>
<path style=" stroke:none;fill-rule:nonzero;fill:rgb(10.196078%,35.686275%,50.196078%);fill-opacity:1;" d="M 89.375 40.324219 L 89.375 38.109375 L 89.8125 38.109375 L 90.335938 39.675781 C 90.386719 39.824219 90.421875 39.929688 90.445312 40.003906 C 90.46875 39.921875 90.507812 39.804688 90.558594 39.648438 L 91.09375 38.109375 L 91.488281 38.109375 L 91.488281 40.324219 L 91.207031 40.324219 L 91.207031 38.46875 L 90.558594 40.324219 L 90.296875 40.324219 L 89.65625 38.4375 L 89.65625 40.324219 Z M 89.375 40.324219 "/>
</g>
</svg>
