<?xml version="1.0" encoding="UTF-8"?>
<svg xmlns="http://www.w3.org/2000/svg" xmlns:xlink="http://www.w3.org/1999/xlink" width="100pt" height="100pt" viewBox="0 0 100 100" version="1.1">
<g id="surface1">
<path style=" stroke:none;fill-rule:nonzero;fill:rgb(95.294118%,94.901961%,94.901961%);fill-opacity:1;" d="M 99.996094 50.003906 C 99.996094 77.613281 77.613281 100 50 100 C 22.386719 100 0.00390625 77.613281 0.00390625 50.003906 C 0.00390625 22.390625 22.386719 0.00390625 50 0.00390625 C 77.613281 0.00390625 99.996094 22.390625 99.996094 50.003906 Z M 99.996094 50.003906 "/>
<path style=" stroke:none;fill-rule:nonzero;fill:rgb(16.078431%,21.176471%,53.333333%);fill-opacity:1;" d="M 37.023438 59.59375 L 40.851562 37 L 47.042969 37 L 43.21875 59.59375 Z M 37.023438 59.59375 "/>
<path style=" stroke:none;fill-rule:nonzero;fill:rgb(16.078431%,21.176471%,53.333333%);fill-opacity:1;" d="M 65.269531 37.585938 C 64.042969 37.128906 62.117188 36.636719 59.71875 36.636719 C 53.59375 36.636719 49.285156 39.703125 49.246094 44.09375 C 49.210938 47.339844 52.324219 49.148438 54.675781 50.230469 C 57.085938 51.335938 57.898438 52.042969 57.886719 53.03125 C 57.871094 54.546875 55.960938 55.238281 54.179688 55.238281 C 51.699219 55.238281 50.382812 54.894531 48.347656 54.054688 L 47.550781 53.691406 L 46.679688 58.75 C 48.125 59.382812 50.800781 59.929688 53.582031 59.957031 C 60.089844 59.953125 64.320312 56.929688 64.367188 52.238281 C 64.390625 49.667969 62.738281 47.710938 59.167969 46.097656 C 57 45.054688 55.675781 44.359375 55.6875 43.300781 C 55.6875 42.359375 56.8125 41.355469 59.238281 41.355469 C 61.261719 41.324219 62.730469 41.765625 63.875 42.222656 L 64.429688 42.480469 Z M 65.269531 37.585938 "/>
<path style=" stroke:none;fill-rule:nonzero;fill:rgb(16.078431%,21.176471%,53.333333%);fill-opacity:1;" d="M 75.832031 37 C 74.347656 37 73.273438 37.453125 72.621094 38.925781 L 63.441406 59.59375 L 70 59.59375 L 71.273438 56.132812 L 79.109375 56.132812 L 79.839844 59.59375 L 85.667969 59.59375 L 80.566406 37.003906 L 75.832031 37.003906 Z M 73.015625 51.613281 C 73.527344 50.3125 75.480469 45.296875 75.480469 45.296875 C 75.445312 45.355469 75.992188 43.988281 76.304688 43.140625 L 76.722656 45.089844 C 76.722656 45.089844 77.90625 50.480469 78.15625 51.613281 Z M 73.015625 51.613281 "/>
<path style=" stroke:none;fill-rule:nonzero;fill:rgb(16.078431%,21.176471%,53.333333%);fill-opacity:1;" d="M 25.730469 52.488281 L 25.183594 49.390625 C 24.054688 45.78125 20.542969 41.875 16.613281 39.917969 L 22.085938 59.59375 L 28.644531 59.59375 L 38.484375 37 L 31.925781 37 Z M 25.730469 52.488281 "/>
<path style=" stroke:none;fill-rule:nonzero;fill:rgb(96.862745%,59.607843%,11.372549%);fill-opacity:1;" d="M 9.878906 37 L 9.878906 37.367188 C 17.652344 39.234375 23.046875 43.960938 25.183594 49.390625 L 22.9375 38.929688 C 22.5625 37.5 21.425781 37.050781 20.082031 37 Z M 9.878906 37 "/>
<path style=" stroke:none;fill-rule:nonzero;fill:rgb(96.862745%,59.607843%,11.372549%);fill-opacity:1;" d="M 49.996094 100 C 69.292969 100 86.027344 89.0625 94.363281 73.050781 L 5.632812 73.050781 C 13.96875 89.0625 30.699219 100 49.996094 100 Z M 49.996094 100 "/>
<path style=" stroke:none;fill-rule:nonzero;fill:rgb(16.078431%,21.176471%,53.333333%);fill-opacity:1;" d="M 49.996094 0 C 31.003906 0 14.488281 10.589844 6.023438 26.183594 L 93.972656 26.183594 C 85.507812 10.589844 68.988281 0 49.996094 0 Z M 49.996094 0 "/>
</g>
</svg>
