<?xml version="1.0" encoding="utf-8"?>
<!-- Generator: Adobe Illustrator 21.0.2, SVG Export Plug-In . SVG Version: 6.00 Build 0)  -->
<svg version="1.1" id="Layer_1" xmlns="http://www.w3.org/2000/svg" xmlns:xlink="http://www.w3.org/1999/xlink" x="0px" y="0px"
	 viewBox="0 0 100 100" style="enable-background:new 0 0 100 100;" xml:space="preserve">
<path d="M87,19.5H69.8H65H35h-4.8H13c-4.4,0-8,3.7-8,8.1v27.7c0,5.6,4.5,10.2,10,10.2h3.2v3c0,6.6,5.4,12,12,12h39.6
	c6.6,0,12-5.4,12-12v-3H85c5.5,0,10-4.6,10-10.2V27.6C95,23.2,91.4,19.5,87,19.5z M75.8,68.5c0,3.3-2.7,6-6,6H52V56.7
	c2.9-0.9,5-3.5,5-6.7c0-3.9-3.1-7-7-7s-7,3.1-7,7c0,3.2,2.1,5.8,5,6.7v17.8H30.2c-3.3,0-6-2.7-6-6v-37c0-3.3,2.7-6,6-6H31h4h30h4
	h0.8c3.3,0,6,2.7,6,6V68.5z M47,50c0-1.7,1.3-3,3-3s3,1.3,3,3c0,1.6-1.3,3-3,3S47,51.6,47,50z M15,61.5c-3.3,0-6-2.8-6-6.2V27.6
	c0-2.3,1.8-4.1,4-4.1h8.3c-1.9,2.1-3.1,4.9-3.1,8v30H15z M91,55.3c0,3.4-2.7,6.2-6,6.2h-3.2v-30c0-3.1-1.2-5.9-3.1-8H87
	c2.2,0,4,1.9,4,4.1V55.3z M43.5,38.5c0,3.3-2.7,6-6,6s-6-2.7-6-6s2.7-6,6-6S43.5,35.2,43.5,38.5z M68.5,38.5c0,3.3-2.7,6-6,6
	s-6-2.7-6-6s2.7-6,6-6S68.5,35.2,68.5,38.5z"/>
</svg>
